# xmcd
# 
# Track frame offsets:
#     150
#     16755
#     34707
#     57792
#     77495
#     92450
#     114800
#     132170
#     149603
#     174802
#     190357
# 
# Disc length: 2734
# 
# Revision: 3
# Processed by: cddbd v1.5.2PL0 Copyright (c) Steve Scherf et al.
# Submitted via: fre:ac v1.0.31
# 
DISCID=7c0aac0b
DTITLE=Sheryl Crow - Be Myself
DYEAR=2017
DGENRE=Rock/Pop
TTITLE0=Alone in the Dark
TTITLE1=Halfway There
TTITLE2=Long Way Back
TTITLE3=Be Myself
TTITLE4=Roller Skate
TTITLE5=Love Will Save the Day
TTITLE6=Strangers Again
TTITLE7=Rest of Me
TTITLE8=Heartbeat Away
TTITLE9=Grow Up
TTITLE10=Woo Woo
EXTD=
EXTT0=
EXTT1=
EXTT2=
EXTT3=
EXTT4=
EXTT5=
EXTT6=
EXTT7=
EXTT8=
EXTT9=
EXTT10=
PLAYORDER=
